<svg xmlns="http://www.w3.org/2000/svg" width="120" height="120" viewBox="0 0 120 120">
    <defs>
        <linearGradient id="a" x1="50%" x2="48.602%" y1="107.387%" y2="2.888%">
            <stop offset="0%" stop-color="#F2F7FF" stop-opacity=".1"/>
            <stop offset="100%" stop-color="#E1ECFF"/>
        </linearGradient>
        <linearGradient id="b" x1="50%" x2="49.522%" y1="107.387%" y2="2.888%">
            <stop offset="0%" stop-color="#F2F7FF" stop-opacity=".1"/>
            <stop offset="100%" stop-color="#E1ECFF"/>
        </linearGradient>
    </defs>
    <g fill="none" fill-rule="evenodd">
        <path fill="#FFF" fill-opacity=".01" d="M0 0h120v120H0z"/>
        <path fill="url(#a)" d="M90.178 23.788C91.658 19.308 92.575.066 65.104 0 37.633-.064 5.334 37.51.313 70.458c-5.022 32.948 51.756 54.13 73.295 40.187 21.538-13.944 26.259-18.93 28.211-29.108 1.952-10.176-12.441-17.104-16.713-24.784s-.814-19.632 1.047-23.358c1.86-3.726 2.544-5.126 4.025-9.607z" transform="translate(7 3)"/>
        <path fill="url(#b)" d="M101.262 31.266c-7.653-1.523-10.563 3.493-8.731 15.048 2.692 7.597 6.556 11.49 11.592 11.68 7.554.283-10.655-8.665-2.861-15.27 5.196-4.404 5.196-8.224 0-11.458z" transform="translate(7 3)"/>
        <g transform="translate(21 19)">
            <rect width="52" height="81.25" x="13" fill="#FFF" rx="4"/>
            <path fill="#E4EDFF" fill-rule="nonzero" d="M48.214 35.66a.567.567 0 0 0-.514-.327h-6.715l6.627-10.463a.566.566 0 0 0-.478-.87h-9.067a.567.567 0 0 0-.507.313l-8.5 17a.566.566 0 0 0 .507.82h5.827l-6.35 15.08A.568.568 0 0 0 30 57.8l18.134-21.534a.567.567 0 0 0 .08-.604z"/>
            <path fill="#D3E2FF" fill-rule="nonzero" d="M74.052 21.377a.4.4 0 0 0-.296-.312l-4.6-1.147 6.327-6.034a.4.4 0 0 0-.18-.678l-6.21-1.548a.4.4 0 0 0-.4.128l-8.725 10.192a.4.4 0 0 0 .207.648l3.991.995-6.924 9.244a.4.4 0 0 0 .555.564l16.097-11.651a.4.4 0 0 0 .158-.4zM13.997 15.658a.4.4 0 0 0-.374.211l-2.226 4.185-4.325-7.598a.4.4 0 0 0-.7.01l-3.005 5.651a.4.4 0 0 0 .027.42l7.778 10.932a.4.4 0 0 0 .68-.045l1.93-3.631 7.295 8.954a.4.4 0 0 0 .682-.402l-7.412-18.437a.4.4 0 0 0-.35-.25z"/>
            <path fill="#F4F4F4" d="M13 73.125h52v4.125a4 4 0 0 1-4 4H17a4 4 0 0 1-4-4v-4.125z"/>
            <rect width="9.75" height="3.25" x="33.719" y="75.563" stroke="#D7D7D7" rx="1.625"/>
            <path fill="#F4F4F4" d="M17 0h44a4 4 0 0 1 4 4v4.125H13V4a4 4 0 0 1 4-4z"/>
            <circle cx="33.719" cy="4.063" r="1" fill="#ADADAD"/>
            <path stroke="#D7D7D7" stroke-linecap="round" d="M36.563 4.063h9.743"/>
        </g>
    </g>
</svg>
