<svg xmlns="http://www.w3.org/2000/svg" xmlns:xlink="http://www.w3.org/1999/xlink" width="80" height="80" viewBox="0 0 80 80">
    <defs>
        <linearGradient id="a" x1="50%" x2="48.602%" y1="107.387%" y2="2.888%">
            <stop offset="0%" stop-color="#F2F7FF" stop-opacity=".1"/>
            <stop offset="100%" stop-color="#E1ECFF"/>
        </linearGradient>
        <linearGradient id="b" x1="50%" x2="49.522%" y1="107.387%" y2="2.888%">
            <stop offset="0%" stop-color="#F2F7FF" stop-opacity=".1"/>
            <stop offset="100%" stop-color="#E1ECFF"/>
        </linearGradient>
        <circle id="d" cx="57.333" cy="54" r="12.667"/>
        <filter id="c" width="190.8%" height="190.8%" x="-45.4%" y="-37.5%" filterUnits="objectBoundingBox">
            <feMorphology in="SourceAlpha" operator="dilate" radius="1.5" result="shadowSpreadOuter1"/>
            <feOffset dy="2" in="shadowSpreadOuter1" result="shadowOffsetOuter1"/>
            <feGaussianBlur in="shadowOffsetOuter1" result="shadowBlurOuter1" stdDeviation="3"/>
            <feComposite in="shadowBlurOuter1" in2="SourceAlpha" operator="out" result="shadowBlurOuter1"/>
            <feColorMatrix in="shadowBlurOuter1" values="0 0 0 0 0 0 0 0 0 0 0 0 0 0 0 0 0 0 0.2 0"/>
        </filter>
    </defs>
    <g fill="none" fill-rule="evenodd">
        <path fill="#FFF" fill-opacity=".01" d="M0 0h80v80H0z"/>
        <path fill="url(#a)" d="M60.118 15.859C61.106 12.872 61.717.044 43.403 0 25.089-.043 3.556 25.007.209 46.972-3.14 68.938 34.713 83.06 49.072 73.763c14.358-9.296 17.506-12.62 18.807-19.405 1.302-6.784-8.294-11.403-11.142-16.523-2.848-5.12-.543-13.088.698-15.572 1.24-2.484 1.696-3.417 2.683-6.404z" transform="translate(4.667 2)"/>
        <path fill="url(#b)" d="M67.508 20.844c-5.102-1.015-7.042 2.328-5.82 10.032 1.794 5.065 4.37 7.66 7.727 7.786 5.036.19-7.103-5.776-1.907-10.18 3.464-2.936 3.464-5.482 0-7.638z" transform="translate(4.667 2)"/>
        <g transform="translate(22.667 12.667)">
            <rect width="34.667" height="54.167" fill="#FFF" rx="4"/>
            <path fill="#5F6368" fill-rule="nonzero" d="M11.83 26.224l-1.898-1.195.078 2.242H8.987l.086-2.242-1.922 1.203-.484-.938 1.968-1-1.96-1.008.484-.906 1.914 1.18-.078-2.227h1.015l-.078 2.235 1.907-1.188.5.906-1.985 1.016 1.985 1-.508.922zm7.72 0l-1.899-1.195.078 2.242h-1.023l.086-2.242-1.922 1.203-.485-.938 1.97-1-1.962-1.008.485-.906 1.914 1.18-.078-2.227h1.015l-.078 2.235 1.906-1.188.5.906-1.984 1.016 1.984 1-.508.922zm7.718 0l-1.898-1.195.078 2.242h-1.024l.086-2.242-1.921 1.203-.485-.938 1.969-1-1.961-1.008.484-.906 1.914 1.18-.078-2.227h1.016l-.078 2.235 1.906-1.188.5.906-1.984 1.016 1.984 1-.508.922z"/>
            <path fill="#F4F4F4" d="M0 48.75h34.667v1.417a4 4 0 0 1-4 4H4a4 4 0 0 1-4-4V48.75z"/>
            <rect width="6.5" height="2.167" x="13.813" y="50.375" stroke="#D7D7D7" rx="1.083"/>
            <path fill="#F4F4F4" d="M4 0h26.667a4 4 0 0 1 4 4v1.417H0V4a4 4 0 0 1 4-4z"/>
            <circle cx="13.813" cy="2.708" r="1" fill="#ADADAD"/>
            <path stroke="#D7D7D7" stroke-linecap="round" d="M15.708 2.708h6.496"/>
        </g>
        <g>
            <use fill="#000" filter="url(#c)" xlink:href="#d"/>
            <use fill="#006DFF" stroke="#FFF" stroke-width="3" xlink:href="#d"/>
        </g>
        <g>
            <path d="M50.667 47.333H64v13.334H50.667z"/>
            <path d="M50.667 47.333H64v13.334H50.667z" opacity=".87"/>
            <path fill="#FDFDFD" fill-rule="nonzero" d="M60.667 51.778h-.556v-1.111a2.779 2.779 0 0 0-5.555 0v1.11H54c-.611 0-1.111.5-1.111 1.112v5.555c0 .612.5 1.112 1.111 1.112h6.667c.61 0 1.11-.5 1.11-1.112V52.89c0-.611-.5-1.111-1.11-1.111zm-3.334 5c-.61 0-1.11-.5-1.11-1.111s.5-1.111 1.11-1.111c.611 0 1.111.5 1.111 1.11 0 .612-.5 1.112-1.11 1.112zm-1.666-5v-1.111c0-.923.744-1.667 1.666-1.667.923 0 1.667.744 1.667 1.667v1.11h-3.333z"/>
        </g>
    </g>
</svg>
