<svg xmlns="http://www.w3.org/2000/svg" xmlns:xlink="http://www.w3.org/1999/xlink" width="120" height="36" viewBox="0 0 120 36">
    <defs>
        <linearGradient id="b" x1="50%" x2="50%" y1="0%" y2="38.913%">
            <stop offset="0%" stop-color="#FBDA09"/>
            <stop offset="100%" stop-color="#FFBC00"/>
        </linearGradient>
        <path id="a" d="M17.532 11.473c1.367-2.402 3.583-2.4 4.947 0l7.423 13.05c1.367 2.402.235 4.35-2.532 4.35H12.643c-2.765 0-3.898-1.95-2.533-4.35l7.422-13.05z"/>
        <linearGradient id="c" x1="37.516%" x2="54.821%" y1="58.476%" y2="39.083%">
            <stop offset="0%" stop-color="#01E2FF"/>
            <stop offset="100%" stop-color="#01C4FF"/>
        </linearGradient>
        <linearGradient id="e" x1="20.281%" x2="83.82%" y1="32.433%" y2="69.755%">
            <stop offset="0%" stop-color="#28D781"/>
            <stop offset="100%" stop-color="#02F076"/>
        </linearGradient>
        <linearGradient id="f" x1="74.488%" x2="10.108%" y1="35.169%" y2="68.753%">
            <stop offset="0%" stop-color="#F2414E"/>
            <stop offset="100%" stop-color="#E02554"/>
        </linearGradient>
    </defs>
    <g fill="none" fill-rule="evenodd" transform="translate(-.32 -.316)">
        <rect width="120" height="35.443" x=".32" y=".316" fill="#000" rx="4"/>
        <text fill="#FDFDFD" font-family="SFProDisplay-Regular, SF Pro Display" font-size="9">
            <tspan x="35.32" y="11.316">Tải ứng dụng trên</tspan>
        </text>
        <path fill="#FFF" d="M87.475 16.214h4.575s2.634.448 2.634 3.472c0 3.025-2.634 3.473-2.634 3.473h-4.575v-6.945zm.888 1.68v3.727h3.106s1.413 0 1.413-1.864c0-1.863-1.413-1.863-1.413-1.863h-3.106z"/>
        <path fill="#FFF" d="M87.072 16.214h1.614v11.298h-1.614zM95.626 16.214h1.614v11.298h-1.614zM103.222 26.704c-.445.367-1.155.712-2.278.782-2.572.16-2.573-2.186-2.573-2.344 0-.158-.127-2.072 1.919-2.376 1.448-.216 2.463.143 2.932.371v-.332c-.115-.44-.472-1.247-1.542-1.247-1.47 0-1.794.794-1.794.794l-1.344-.794s.752-1.551 3.01-1.551c2.806 0 3.284 1.936 3.284 2.588V27.508h-1.614v-.804zm-.116-2.42s-3.109-.838-3.217.909c-.108 1.747 2.983.908 3.26-.33 0-.394-.043-.579-.043-.579zM107.864 27.083l-2.877-6.834h1.614l2.07 4.917 2.054-4.878h1.614l-4.366 10.371h-1.614l1.505-3.576zM83.458 22.89L78.354 25s.33 1.166 1.864 1.174c1.202.006 1.88-1.065 1.88-1.065l1.295.877s-1.045 1.69-3.185 1.69c-2.63 0-3.789-2.3-3.789-3.793 0-1.44.92-3.876 3.626-3.876s3.413 2.883 3.413 2.883zm-1.942-.598s-.642-.977-1.627-.797c-2.084.381-1.821 2.205-1.821 2.205l3.448-1.408zM73.998 16.214h1.708v11.274h-1.708zM71.266 20.252l1.578.013v7.114c0 1.818-1.082 3.736-3.63 3.736-2.547 0-3.37-2.257-3.37-2.257l1.45-.61s.442 1.391 1.996 1.391c1.77 0 1.976-1.61 1.976-2.16v-.772s-.612.958-2.133.958c-1.649 0-3.608-1.413-3.608-3.821 0-2.408 1.845-3.786 3.627-3.836 1.428-.04 2.114.947 2.114.947v-.703zm-1.998 5.967c1.15 0 2.084-1.054 2.084-2.355 0-1.3-.933-2.355-2.084-2.355s-2.084 1.055-2.084 2.355.933 2.355 2.084 2.355zM60.974 27.673a3.838 3.838 0 0 1-3.842-3.833 3.838 3.838 0 0 1 3.842-3.833 3.838 3.838 0 0 1 3.842 3.833 3.838 3.838 0 0 1-3.842 3.833zm-.025-1.503c1.193 0 2.16-1.043 2.16-2.33 0-1.287-.967-2.33-2.16-2.33s-2.16 1.043-2.16 2.33c0 1.287.967 2.33 2.16 2.33zM52.662 27.673a3.838 3.838 0 0 1-3.842-3.833 3.838 3.838 0 0 1 3.842-3.833 3.838 3.838 0 0 1 3.842 3.833 3.838 3.838 0 0 1-3.842 3.833zm-.025-1.503c1.192 0 2.16-1.043 2.16-2.33 0-1.287-.968-2.33-2.16-2.33-1.193 0-2.16 1.043-2.16 2.33 0 1.287.967 2.33 2.16 2.33zM42.742 21.222h5.072l-.05 1.603h-5.022z"/>
        <path fill="#FFF" d="M46.816 17.45l-1.16 1.157c-.725-.738-1.753-1.143-2.94-1.143a4.289 4.289 0 0 0-4.293 4.284 4.289 4.289 0 0 0 4.294 4.284c2.371 0 4.055-1.368 4.051-4.284.004-.18 0-.356-.012-.526h1.482v.06c.557 4.083-2.23 6.434-5.572 6.404-3.286-.005-5.95-2.659-5.95-5.938 0-3.28 2.664-5.938 5.95-5.938 1.718 0 3.163.6 4.15 1.64z"/>
        <mask id="d" fill="#fff">
            <use xlink:href="#a"/>
        </mask>
        <use fill="url(#b)" transform="rotate(90 20.006 17.998)" xlink:href="#a"/>
        <path fill="url(#c)" d="M9.116 6.603l11.28 11.212L8.97 29.47z" mask="url(#d)"/>
        <path fill="url(#e)" d="M6.796 4.295l13.6 13.523 4.043-3.857z" mask="url(#d)"/>
        <path fill="url(#f)" d="M20.397 17.815l6.19 6.24-18.491 6.238z" mask="url(#d)"/>
    </g>
</svg>
