<svg xmlns="http://www.w3.org/2000/svg" width="120" height="36" viewBox="0 0 120 36">
    <g fill="none" fill-rule="evenodd">
        <rect width="120" height="35.62" fill="#000" rx="4"/>
        <path fill="#FFF" d="M46.06 27.355h2.017l-4.415-12.228H41.62l-4.415 12.228h1.949l1.127-3.245h4.66l1.12 3.245zm-3.516-10.008h.144l1.77 5.17h-3.694l1.78-5.17zm10.881.627c-1.254 0-2.339.627-2.898 1.678h-.136v-1.525h-1.754v12.22h1.822v-4.39h.144c.483.975 1.526 1.55 2.84 1.55 2.33 0 3.812-1.838 3.812-4.77 0-2.932-1.483-4.763-3.83-4.763zm-.517 7.898c-1.525 0-2.483-1.203-2.483-3.127 0-1.932.958-3.135 2.492-3.135 1.542 0 2.466 1.178 2.466 3.127 0 1.957-.924 3.135-2.475 3.135zm9.966-7.898c-1.254 0-2.338.627-2.898 1.678h-.135v-1.525h-1.755v12.22h1.822v-4.39h.145c.483.975 1.525 1.55 2.838 1.55 2.33 0 3.814-1.838 3.814-4.77 0-2.932-1.483-4.763-3.83-4.763zm-.516 7.898c-1.526 0-2.483-1.203-2.483-3.127 0-1.932.957-3.135 2.491-3.135 1.542 0 2.466 1.178 2.466 3.127 0 1.957-.924 3.135-2.474 3.135zm8.204-1.805c.135 2.187 1.957 3.585 4.669 3.585 2.898 0 4.712-1.466 4.712-3.805 0-1.839-1.034-2.856-3.543-3.44l-1.347-.331c-1.593-.373-2.237-.873-2.237-1.746 0-1.101 1-1.822 2.5-1.822 1.423 0 2.406.704 2.584 1.83h1.848c-.11-2.059-1.924-3.508-4.407-3.508-2.67 0-4.449 1.45-4.449 3.627 0 1.797 1.009 2.865 3.22 3.382l1.577.38c1.618.382 2.33.942 2.33 1.874 0 1.084-1.119 1.873-2.644 1.873-1.635 0-2.771-.738-2.932-1.899h-1.881zM81.51 15.89v2.28h-1.517v1.533h1.517v5.212c0 1.78.805 2.491 2.83 2.491.356 0 .687-.042.975-.093v-1.517c-.254.026-.398.042-.678.042-.907 0-1.305-.423-1.305-1.39v-4.745h2.068V18.17h-2.068v-2.28h-1.822zm8.407 10.025c-1.585 0-2.474-1.161-2.474-3.178 0-2 .89-3.17 2.474-3.17 1.576 0 2.475 1.17 2.475 3.17 0 2.008-.899 3.178-2.475 3.178zm0 1.618c2.695 0 4.347-1.805 4.347-4.796 0-2.975-1.66-4.788-4.347-4.788-2.695 0-4.356 1.813-4.356 4.788 0 2.991 1.653 4.796 4.356 4.796zm5.178-.178h1.822v-5.449c0-1.296.975-2.169 2.348-2.169.305 0 .864.06 1.008.11v-1.796c-.195-.051-.542-.077-.805-.077-1.203 0-2.22.661-2.483 1.568h-.135v-1.415h-1.755v9.228zm9.28-7.855c1.348 0 2.229.94 2.271 2.39h-4.66c.101-1.441 1.042-2.39 2.39-2.39zm2.263 5.364c-.34.72-1.093 1.119-2.195 1.119-1.458 0-2.398-1.026-2.458-2.644v-.102h6.517V22.6c0-2.898-1.55-4.652-4.118-4.652-2.602 0-4.254 1.873-4.254 4.822s1.618 4.762 4.262 4.762c2.11 0 3.585-1.017 4-2.67h-1.754z"/>
        <text fill="#FDFDFD" font-family="SFProDisplay-Regular, SF Pro Display" font-size="9">
            <tspan x="37" y="11">Tải ứng dụng trên</tspan>
        </text>
        <path fill="#FFF" d="M29.254 13.519c-1.385-2.02-3.533-2.297-4.288-2.319-1.804-.19-3.554 1.08-4.473 1.08-.937 0-2.352-1.061-3.877-1.03-1.963.03-3.799 1.167-4.806 2.931-2.078 3.598-.528 8.885 1.463 11.793.996 1.425 2.16 3.015 3.683 2.959 1.49-.06 2.047-.95 3.846-.95 1.782 0 2.304.95 3.858.913 1.6-.024 2.606-1.43 3.567-2.868 1.151-1.63 1.614-3.24 1.632-3.322-.037-.012-3.105-1.184-3.137-4.726-.026-2.956 2.42-4.394 2.532-4.461z"/>
    </g>
</svg>
