<svg xmlns="http://www.w3.org/2000/svg" xmlns:xlink="http://www.w3.org/1999/xlink" width="120" height="120" viewBox="0 0 120 120">
    <defs>
        <linearGradient id="a" x1="50%" x2="50%" y1="0%" y2="100%">
            <stop offset="0%" stop-color="#D7D7D7"/>
            <stop offset="100%" stop-color="#C3C2C2"/>
        </linearGradient>
        <path id="b" d="M6.17 1.243H47.76a4 4 0 0 1 4 4v71.221a4 4 0 0 1-3.795 3.995L6.336 82.601a4 4 0 0 1-4.206-3.997l.038-73.36a4.006 4.006 0 0 1 4.002-4z"/>
        <path id="d" d="M12.857 2.143c-5.914 0-10.714 4.8-10.714 10.714 0 5.914 4.8 10.714 10.714 10.714 5.914 0 10.714-4.8 10.714-10.714 0-5.914-4.8-10.714-10.714-10.714z"/>
        <path id="f" d="M12.044 51.734c0-5.801-1.237-11.574-3.913-10.846C7.084 40.296 4.374 61.729 0 105.186h51.323l13.529-32.17c1.142-3.98.665-5.971-1.431-5.971 3.743-6.917 4.573-11.377 2.488-13.38-.827-.583-1.656-.583-2.488 0-1.248.872 7.176-20.192 6.123-21.773-.701-1.054-1.602-1.054-2.702 0-2.628 2.967-3.942 4.898-3.942 5.794 0 .896-.297 6.436-.89 16.619-5.243 6.106-7.456 9.837-6.638 11.191.756 1.033 2.81.023 6.165-3.03l-.455 5.062c-4.246 4.732-6.15 7.751-5.71 9.059.44 1.307 2.176.67 5.207-1.913-1.1 7.422-2.243 8.338-3.428 8.338H21.846c-4.364-6.319-7.631-9.817-9.802-10.494 0-2.186-.617-10.824 0-20.784z"/>
    </defs>
    <g fill="none" fill-rule="evenodd">
        <path fill="#FFF" d="M0 0h120v120H0z" opacity=".01"/>
        <g transform="translate(25.2 7.371)">
            <g transform="translate(9.607 .012)">
                <path fill="url(#a)" d="M7.429 2.472h41.628a4 4 0 0 1 4 4v73.343a4 4 0 0 1-4 4H7.43a4 4 0 0 1-4-4V6.472a4 4 0 0 1 4-4z" transform="rotate(3 28.243 43.143)"/>
                <mask id="c" fill="#fff">
                    <use xlink:href="#b"/>
                </mask>
                <use fill="#E6E8EB" transform="rotate(3 26.943 42.03)" xlink:href="#b"/>
                <g fill="#FFF" mask="url(#c)">
                    <g transform="rotate(3 -851.957 214.83)">
                        <rect width="34.286" height="2.571" rx="1.286"/>
                        <rect width="25.714" height="2.571" x="4.286" y="5.143" rx="1.286"/>
                    </g>
                </g>
                <path fill="#F4F4F4" d="M-.138 76.258l51.293-2.637-1.194 8.923-49.63.296z" mask="url(#c)" transform="rotate(3 25.509 78.23)"/>
                <path fill="#F4F4F4" d="M4.3 1.278h49.588l.355 6.767-50.98-.097z" mask="url(#c)" transform="rotate(3 28.753 4.661)"/>
                <g mask="url(#c)">
                    <g transform="rotate(3 -288.755 315.554)">
                        <path d="M0 0h25.714v25.714H0z"/>
                        <mask id="e" fill="#fff">
                            <use xlink:href="#d"/>
                        </mask>
                        <use fill="#FF9717" fill-rule="nonzero" xlink:href="#d"/>
                        <path fill="#FDFDFD" fill-rule="nonzero" d="M17.698 8.019a6.821 6.821 0 0 0-5.56-1.982c-3.149.317-5.74 2.874-6.092 6.023a6.85 6.85 0 0 0 12.99 3.758.86.86 0 0 0-.772-1.235.835.835 0 0 0-.755.454 5.143 5.143 0 0 1-5.834 2.84C9.77 17.457 8.234 15.904 7.83 14a5.15 5.15 0 0 1 5.02-6.28c1.423 0 2.693.592 3.62 1.527l-1.296 1.295c-.54.541-.163 1.468.601 1.468h3.08a.86.86 0 0 0 .858-.858V8.07c0-.764-.926-1.15-1.467-.61l-.55.558z" mask="url(#e)"/>
                    </g>
                </g>
            </g>
            <mask id="g" fill="#fff">
                <use xlink:href="#f"/>
            </mask>
            <use fill="#FFDCC2" xlink:href="#f"/>
            <path fill="#572E11" fill-opacity=".1" d="M63.467 35.979v17.693l-1.457.633.728-16.884zM43.723 82.903l-18.391 2.12a3.983 3.983 0 0 0-1.672.59.716.716 0 0 1-1.06-.376l-.754-2.225 21.877-.11z" mask="url(#g)"/>
            <path fill="#572E11" fill-opacity=".1" fill-rule="nonzero" d="M48.074 86.507c-6.408 3.964-10.34 10.159-11.774 18.51l1.971.338c1.34-7.805 4.953-13.496 10.855-17.147l-1.052-1.701z" mask="url(#g)"/>
            <path fill="#572E11" fill-opacity=".1" d="M7.422 43.155c.783.54 1.146 1.51.91 2.431l-.38 1.477a5.405 5.405 0 0 1-2.327 3.212l.644-6.222 1.153-.898z" mask="url(#g)" opacity=".6"/>
            <path fill="#572E11" fill-opacity=".1" d="M57.297 61.571a.757.757 0 0 1 .751.851l-.122.985-.028.746a.723.723 0 0 1-.695.695.664.664 0 0 1-.689-.645l-.05-1.775a.833.833 0 0 1 .833-.857z" mask="url(#g)" transform="rotate(39 57.297 63.222)"/>
            <path fill="#572E11" fill-opacity=".1" d="M57.405 73.48a.757.757 0 0 1 .752.85l-.123.985-.02.41a.734.734 0 0 1-.706.695.665.665 0 0 1-.69-.645l-.044-1.439a.832.832 0 0 1 .831-.856z" mask="url(#g)" transform="rotate(39 57.405 74.963)"/>
        </g>
    </g>
</svg>
